<?xml version="1.0" encoding="utf-8"?>
<!-- Generator: Adobe Illustrator 24.0.2, SVG Export Plug-In . SVG Version: 6.00 Build 0)  -->
<svg version="1.1" id="Layer_1" xmlns="http://www.w3.org/2000/svg" xmlns:xlink="http://www.w3.org/1999/xlink" x="0px" y="0px"
	 viewBox="0 0 398.65 140" style="enable-background:new 0 0 398.65 140;" xml:space="preserve">
<style type="text/css">
	.st0{fill:#1F2D42;}
	.st1{fill:#50ABE0;}
</style>
<g>
	<g>
		<path class="st0" d="M143.84,103.12h-43.05V36.88h41.67v9.75h-30.08v18.21h25.48v9.48h-25.48v19.04h31.46V103.12z"/>
		<path class="st0" d="M197.3,103.12h-38.55V36.88h11.59v56.49h26.96V103.12z"/>
		<path class="st0" d="M206.77,100.54V89.23c5.98,3.04,11.87,4.6,17.66,4.78c2.67,0,4.88-0.28,6.62-0.74
			c5.06-1.2,7.54-3.5,7.54-7.08c0-5.15-3.59-8-13.89-11.68c-12.88-4.51-18.58-9.94-18.58-20.24c0-5.7,2.12-10.21,6.44-13.52
			c4.32-3.4,9.84-5.06,16.65-5.06c5.98,0,11.68,1.1,16.93,3.31v10.86c-4.69-2.67-10.12-3.96-16.1-3.96c-7.64,0-12.6,3.13-12.6,8.19
			c0,4.78,3.59,7.82,13.62,11.5c12.88,4.78,18.77,10.12,18.77,20.15c0,11.68-8.83,18.58-23.64,18.58
			C219.28,104.31,212.75,103.03,206.77,100.54z"/>
		<path class="st0" d="M307.33,103.12h-43.05V36.88h41.67v9.75h-30.08v18.21h25.48v9.48h-25.48v19.04h31.46V103.12z"/>
		<path class="st0" d="M325.63,45.71c6.53-6.72,14.72-10.03,24.47-10.03c9.66,0,17.85,3.31,24.38,9.94
			c6.62,6.53,9.94,14.72,9.94,24.38c0,9.66-3.31,17.85-9.84,24.47c-6.53,6.53-14.63,9.84-24.47,9.84c-9.75,0-17.94-3.31-24.47-9.84
			c-6.53-6.62-9.84-14.81-9.84-24.47C315.79,60.43,319.1,52.34,325.63,45.71z M333.82,86.93c4.32,4.51,9.75,6.72,16.28,6.72
			c6.53,0,11.96-2.21,16.19-6.72c4.32-4.51,6.44-10.21,6.44-16.93c0-6.72-2.12-12.33-6.44-16.84c-4.23-4.51-9.66-6.81-16.19-6.81
			c-6.53,0-11.96,2.3-16.28,6.81c-4.32,4.51-6.44,10.12-6.44,16.84C327.38,76.72,329.5,82.42,333.82,86.93z"/>
	</g>
	<g>
		<rect x="16.26" y="56.7" class="st1" width="17.4" height="28.8"/>
		<rect x="38.46" y="47.7" class="st1" width="17.4" height="37.8"/>
		<polygon class="st1" points="60.66,36.9 60.66,89.1 16.26,89.1 16.26,102.9 78.06,102.9 78.06,36.9 		"/>
	</g>
</g>
</svg>
