<svg xmlns="http://www.w3.org/2000/svg" width="120" height="74.561" viewBox="0 0 120 74.561">
  <g id="Group_3" data-name="Group 3" transform="translate(-457 -356.577)">
    <g id="Group_2" data-name="Group 2" transform="translate(0 -3)">
      <path id="Path_1" data-name="Path 1" d="M29.048,32.592,0,20V12.973L29.048.44v8.2L8.785,16.37l20.264,8.082Z" transform="translate(477 359.137)" fill="#2d0d38"/>
      <path id="Path_2" data-name="Path 2" d="M10.351,32.6V24.462l20.264-8.023L8.36,7.771,10.351.45,39.4,13.042v6.911Z" transform="translate(517.6 359.185)" fill="#2d0d38"/>
      <path id="Path_3" data-name="Path 3" d="M-77.639,11.85-88.3,55.6H-96.38L-85.838,11.85Z" transform="translate(605.591 347.785)" fill="#2d0d38"/>
    </g>
    <g id="Group_1" data-name="Group 1" transform="translate(-79.057 53)">
      <path id="Path_4" data-name="Path 4" d="M-85.4,31.537V15.031a25.324,25.324,0,0,1,5.522-.58h.885a4.821,4.821,0,0,1,3.448,1.129,4.3,4.3,0,0,1,1.159,3.2v4.15a4.3,4.3,0,0,1-1.159,3.2,4.821,4.821,0,0,1-3.448,1.129h-.885a23.068,23.068,0,0,1-3.051-.244v4.516Zm8.574-8.757V18.967a2.2,2.2,0,0,0-.66-1.819,2.2,2.2,0,0,0-1.842-.592h-.915a24.957,24.957,0,0,0-2.685.153v8.268a21.357,21.357,0,0,0,2.685.183h.915a2.2,2.2,0,0,0,1.856-.6,2.2,2.2,0,0,0,.646-1.84Zm11.35-8.268h.488a24.408,24.408,0,0,1,3.631.275v1.8H-65.2a1.861,1.861,0,0,0-1.6.512,1.861,1.861,0,0,0-.535,1.593v8.452h-2.441V18.57q0-4.119,4.3-4.119Zm16.69,8.268V18.967a2.624,2.624,0,0,0-.58-1.861,2.624,2.624,0,0,0-1.922-.58h-1.678a2.593,2.593,0,0,0-1.892.58,2.624,2.624,0,0,0-.58,1.861V22.72a2.563,2.563,0,0,0,.58,1.861,2.593,2.593,0,0,0,1.892.61h1.678a2.624,2.624,0,0,0,1.922-.61,2.563,2.563,0,0,0,.58-1.861Zm-9.153,0V18.814c0-3.051,1.587-4.424,4.729-4.424h2.136c3.051,0,4.7,1.465,4.7,4.424v3.966c0,3.051-1.556,4.394-4.7,4.394h-2.136c-3.112.061-4.7-1.4-4.7-4.333Zm21.876,2.349h2.654V26.9a10.038,10.038,0,0,1-2.532.275h-.824a3.844,3.844,0,0,1-2.807-1.007,3.722,3.722,0,0,1-1.007-2.807V16.678h-2.2V14.634h2.2V11.4h2.441v3.234h4.546v2.044h-4.516v6.438a1.831,1.831,0,0,0,.517,1.558,1.831,1.831,0,0,0,1.558.517Zm15.591-2.471V18.967a2.624,2.624,0,0,0-.58-1.861,2.624,2.624,0,0,0-1.922-.58h-1.678a2.594,2.594,0,0,0-1.892.58,2.624,2.624,0,0,0-.58,1.861V22.72a2.563,2.563,0,0,0,.58,1.861,2.594,2.594,0,0,0,1.892.61h1.678a2.624,2.624,0,0,0,1.922-.61,2.563,2.563,0,0,0,.61-1.861Zm-9.153,0V18.692c0-3.051,1.556-4.424,4.7-4.424h2.136c3.051,0,4.7,1.465,4.7,4.424v3.966c0,3.051-1.556,4.394-4.7,4.394h-2.136c-3.051.183-4.607-1.281-4.607-4.211ZM-11.014,26.9h-2.441V15.031a26.148,26.148,0,0,1,5.553-.58h.854A4.79,4.79,0,0,1-3.63,15.58a4.3,4.3,0,0,1,1.159,3.2v8.3h-2.38V19a2.166,2.166,0,0,0-.614-1.827,2.166,2.166,0,0,0-1.827-.614h-.915a20.809,20.809,0,0,0-2.654.183Z" transform="translate(621.458 346.6)" fill="#2d0d38"/>
      <path id="Path_5" data-name="Path 5" d="M-56.3,22.751a1.464,1.464,0,0,1,1.068-.427,1.465,1.465,0,0,1,1.037.427,1.465,1.465,0,0,1,.427,1.037,1.465,1.465,0,0,1-.427,1.037,1.465,1.465,0,0,1-1.037.427,1.465,1.465,0,0,1-1.068-.427,1.465,1.465,0,0,1-.427-1.037,1.464,1.464,0,0,1,.427-1.037Zm17.574-6.1v7.933a28.376,28.376,0,0,1-5.461.519h-1.159a4.76,4.76,0,0,1-3.051-.915,3.051,3.051,0,0,1-1.068-2.532v-.7A3.234,3.234,0,0,1-48.4,18.388a4.76,4.76,0,0,1,3.051-.915h.946a25.781,25.781,0,0,1,3.051.214V16.8a2.166,2.166,0,0,0-.637-1.819,2.166,2.166,0,0,0-1.834-.591H-48.4V12.743a28.1,28.1,0,0,1,4.577-.336h.488a4.821,4.821,0,0,1,3.448,1.129,4.3,4.3,0,0,1,1.159,3.2Zm-5.1,2.654h-1.068c-1.434,0-2.136.549-2.136,1.648v.519c0,1.129.7,1.678,2.136,1.678h1.159a22.273,22.273,0,0,0,2.563,0v-3.57a18.122,18.122,0,0,0-2.654-.183Zm9.7-4.76V12.5h9.733v1.8l-6.834,8.574h7.018v2.075H-34.274V23.117l6.834-8.574Z" transform="translate(680.263 348.643)" fill="#2d0d38"/>
    </g>
  </g>
</svg>
