<svg xmlns="http://www.w3.org/2000/svg" width="230" height="216.35" viewBox="0 0 230 216.35">
  <g id="Group_766" data-name="Group 766" transform="translate(130.477 -3253.227)" opacity="0.2">
    <g id="Group_765" data-name="Group 765" transform="translate(-130.477 3253.226)">
      <g id="Group_764" data-name="Group 764" transform="translate(0 0)">
        <g id="Group_462" data-name="Group 462">
          <g id="Group_461" data-name="Group 461">
            <path id="Path_232" data-name="Path 232" d="M1270.308,1281.15a110.078,110.078,0,0,1-5.822,36.292,97.764,97.764,0,0,1-9.673,20.191,109.3,109.3,0,0,1-16.5,20.191q-31.514,31.514-77.7,31.5H1130.14V1349.2h30.471q28.957,0,47.745-19.3a65.735,65.735,0,0,0,7.992-9.98q10.794-16.476,10.8-38.769,0-24.571-13.555-42.159a66.965,66.965,0,0,0-5.234-6.1q-18.827-19.805-47.745-19.793-28.952,0-47.742,19.793a64.62,64.62,0,0,0-16.733,32.2h11.381l-33.606,58.188-33.6-58.187h12.127q4.665-35.331,30.474-61.157,31.48-30.951,77.7-30.963,46.205,0,77.7,30.963Q1270.317,1235.452,1270.308,1281.15Z" transform="translate(-1040.308 -1172.975)" fill="#fff"/>
          </g>
        </g>
        <g id="Group_463" data-name="Group 463" transform="translate(116.697 64.645)">
          <path id="Path_233" data-name="Path 233" d="M1113.535,1276.106l1.8-1.792-39.916-36.553h-.148a4.148,4.148,0,0,1-2.485-7.469l2.371-36.012h-2.575l2.689-4.238,2.708,4.238h-2.594l2.371,36.012a4.123,4.123,0,0,1,1.662,3.306,3.692,3.692,0,0,1-.113.913l36.254,39.58,1.792-1.8,1.083,4.894Z" transform="translate(-1071.119 -1190.043)" fill="#fff" fill-rule="evenodd"/>
        </g>
      </g>
    </g>
  </g>
</svg>
