<svg xmlns="http://www.w3.org/2000/svg" width="524.297" height="564.872" viewBox="0 0 524.297 564.872">
  <g id="Group_764" data-name="Group 764" transform="translate(-340.333 -421.064)">
    <g id="Group_763" data-name="Group 763">
      <g id="Group_762" data-name="Group 762">
        <g id="Group_761" data-name="Group 761" transform="translate(103 149.058)">
          <path id="Path_385" data-name="Path 385" d="M967.952,510.871a53.732,53.732,0,0,1-10.135,7.572L761.761,631.637a54.05,54.05,0,0,1-54.05,0L511.655,518.444a54.2,54.2,0,0,1-27.025-46.808V245.249a54.2,54.2,0,0,1,27.025-46.809L707.711,85.248a54.045,54.045,0,0,1,54.05,0L957.817,198.441a53.711,53.711,0,0,1,10.136,7.573" transform="translate(-225 196)" fill="none" stroke="#200a06" stroke-miterlimit="10" stroke-width="4"/>
          <path id="Path_386" data-name="Path 386" d="M483.322,432.865a53.73,53.73,0,0,1-10.135,7.572L277.131,553.631a54.05,54.05,0,0,1-54.05,0L27.025,440.438A54.2,54.2,0,0,1,0,393.63V167.243a54.2,54.2,0,0,1,27.025-46.809L223.081,7.242a54.045,54.045,0,0,1,54.05,0L473.187,120.435a53.711,53.711,0,0,1,10.136,7.573" transform="translate(759.63 834.878) rotate(180)" fill="none" stroke="#200a06" stroke-miterlimit="10" stroke-width="4"/>
        </g>
      </g>
    </g>
    <path id="Path_382" data-name="Path 382" d="M450.55,575.545a42.782,42.782,0,0,1-.217-4.3v-245.7" transform="translate(-108 252.955)" fill="none" stroke="#200a06" stroke-miterlimit="10" stroke-width="4"/>
  </g>
</svg>
